# xmcd
#
# Track frame offsets:
#	150
#	18994
#	42516
#	66973
#	94466
#	112514
#	126459
#	148372
#	170726
#	186901
#	194029
#	211518
#	226183
#
# Disc length: 3200 seconds
#
# Revision: 1
# Processed by: cddbd v1.5.2PL0 Copyright (c) Steve Scherf et al.
# Submitted via: audiograbber 1.83.01
#
DISCID=c20c7e0d
DTITLE=bernie Coveney - wispering pines
DYEAR=2007
DGENRE=
TTITLE0=Lucky Lou
TTITLE1=Cherry wine
TTITLE2=Whispering pines
TTITLE3=Autumn fall
TTITLE4=En la fontera
TTITLE5=Coming home
TTITLE6=Fair well
TTITLE7=New love
TTITLE8=Where's Joe
TTITLE9=BJ's rag
TTITLE10=Still I wonder
TTITLE11=Soaring
TTITLE12=Shadow in the air
EXTD=
EXTT0=
EXTT1=
EXTT2=
EXTT3=
EXTT4=
EXTT5=
EXTT6=
EXTT7=
EXTT8=
EXTT9=
EXTT10=
EXTT11=
EXTT12=
PLAYORDER=
